<?xml version="1.0" encoding="utf-8"?>
<!-- Generator: Adobe Illustrator 20.1.0, SVG Export Plug-In . SVG Version: 6.00 Build 0)  -->
<svg version="1.1" id="Layer_1" xmlns="http://www.w3.org/2000/svg" xmlns:xlink="http://www.w3.org/1999/xlink" x="0px" y="0px"
	 viewBox="0 0 124 126" style="enable-background:new 0 0 124 126;" xml:space="preserve">
<style type="text/css">
	.st0{clip-path:url(#SVGID_2_);fill:#000002;}
	.st1{fill:none;}
	.st2{font-family:'OpenSans-CondensedBold';}
	.st3{font-size:11.0004px;}
</style>
<g>
	<g>
		<defs>
			<rect id="SVGID_1_" x="31.2" y="32.9" width="60.8" height="61.8"/>
		</defs>
		<clipPath id="SVGID_2_">
			<use xlink:href="#SVGID_1_"  style="overflow:visible;"/>
		</clipPath>
		<path class="st0" d="M38.6,94.4c-0.2,0-0.3,0-0.5-0.1c-0.2-0.1-0.3-0.3-0.4-0.6l-6.5-28c-0.1-0.5,0.2-1,0.7-1.1l2.4-0.6l27.5-23
			l-1.6-1.4c-0.5,0.3-1.2,0.5-1.9,0.5c-2,0-3.6-1.6-3.6-3.6c0-2,1.6-3.6,3.6-3.6c2,0,3.6,1.6,3.6,3.6c0,0.6-0.2,1.2-0.5,1.7l1.7,1.6
			l0.4-0.3c0.3-0.3,0.8-0.3,1.1,0L82,52.9l2.2-0.5c0.5-0.1,1,0.2,1.1,0.7l6.5,28c0.1,0.5-0.2,1-0.7,1.1L38.8,94.3
			C38.7,94.3,38.7,94.4,38.6,94.4L38.6,94.4z M33.2,66.1l6.1,26.3l50.6-11.7l-6.1-26.3L82,54.7c0,0,0,0,0,0l-47,10.9c0,0,0,0,0,0
			L33.2,66.1z M63.1,42.2l-25,20.9l41.6-9.7L65.3,42.2c0,0.2-0.1,0.4-0.2,0.5c-0.3,0.4-0.9,0.4-1.3,0.1L63.1,42.2z M58.3,34.7
			c-1,0-1.8,0.8-1.8,1.8c0,1,0.8,1.8,1.8,1.8c0.5,0,0.9-0.2,1.3-0.5c0,0,0,0,0,0c0.3-0.3,0.5-0.7,0.5-1.2
			C60.1,35.5,59.3,34.7,58.3,34.7L58.3,34.7z"/>
	</g>
</g>
<rect x="40.5" y="70.8" transform="matrix(0.9781 -0.2083 0.2083 0.9781 -14.3142 14.4837)" class="st1" width="42.2" height="8.7"/>
<text transform="matrix(0.9781 -0.2083 0.2083 0.9781 43.7369 82.9672)" class="st2 st3">LOCAÇÃO</text>
</svg>
