<?xml version="1.0" encoding="utf-8"?>
<!-- Generator: Adobe Illustrator 20.1.0, SVG Export Plug-In . SVG Version: 6.00 Build 0)  -->
<svg version="1.1" id="Layer_1" xmlns="http://www.w3.org/2000/svg" xmlns:xlink="http://www.w3.org/1999/xlink" x="0px" y="0px"
	 viewBox="0 0 124 126" style="enable-background:new 0 0 124 126;" xml:space="preserve">
<g>
	<g>
		<path d="M81.5,34.4h-39c-1.4,0-2.6,1.2-2.6,2.6v52c0,1.4,1.2,2.6,2.6,2.6h39c1.4,0,2.6-1.2,2.6-2.6V37
			C84.1,35.6,82.9,34.4,81.5,34.4L81.5,34.4z M78.9,39.6v7.8H45.1v-7.8H78.9z M45.1,86.4V52.6h33.8v33.8L45.1,86.4L45.1,86.4z"/>
		<path d="M54.4,54.9H49c-0.7,0-1.3,0.6-1.3,1.3v5.4c0,0.7,0.6,1.3,1.3,1.3h5.4c0.7,0,1.3-0.6,1.3-1.3v-5.4
			C55.7,55.5,55.1,54.9,54.4,54.9L54.4,54.9z"/>
		<path d="M64.7,54.9h-5.4c-0.7,0-1.3,0.6-1.3,1.3v5.4c0,0.7,0.6,1.3,1.3,1.3h5.4c0.7,0,1.3-0.6,1.3-1.3v-5.4
			C66,55.5,65.4,54.9,64.7,54.9L64.7,54.9z"/>
		<path d="M75,54.9h-5.4c-0.7,0-1.3,0.6-1.3,1.3v5.4c0,0.7,0.6,1.3,1.3,1.3H75c0.7,0,1.3-0.6,1.3-1.3v-5.4
			C76.3,55.5,75.7,54.9,75,54.9L75,54.9z"/>
		<path d="M54.4,65.5H49c-0.7,0-1.3,0.6-1.3,1.3v5.4c0,0.7,0.6,1.3,1.3,1.3h5.4c0.7,0,1.3-0.6,1.3-1.3v-5.4
			C55.7,66.1,55.1,65.5,54.4,65.5L54.4,65.5z"/>
		<path d="M64.7,65.5h-5.4c-0.7,0-1.3,0.6-1.3,1.3v5.4c0,0.7,0.6,1.3,1.3,1.3h5.4c0.7,0,1.3-0.6,1.3-1.3v-5.4
			C66,66.1,65.4,65.5,64.7,65.5L64.7,65.5z"/>
		<path d="M54.4,76.1H49c-0.7,0-1.3,0.6-1.3,1.3v5.4c0,0.7,0.6,1.3,1.3,1.3h5.4c0.7,0,1.3-0.6,1.3-1.3v-5.4
			C55.7,76.7,55.1,76.1,54.4,76.1L54.4,76.1z"/>
		<path d="M64.7,76.1h-5.4c-0.7,0-1.3,0.6-1.3,1.3v5.4c0,0.7,0.6,1.3,1.3,1.3h5.4c0.7,0,1.3-0.6,1.3-1.3v-5.4
			C66,76.7,65.4,76.1,64.7,76.1L64.7,76.1z"/>
		<path d="M75,65.5h-5.4c-0.7,0-1.3,0.6-1.3,1.3v16c0,0.7,0.6,1.3,1.3,1.3H75c0.7,0,1.3-0.6,1.3-1.3v-16
			C76.3,66.1,75.7,65.5,75,65.5L75,65.5z"/>
	</g>
</g>
</svg>
