<?xml version="1.0" encoding="utf-8"?>
<!-- Generator: Adobe Illustrator 20.1.0, SVG Export Plug-In . SVG Version: 6.00 Build 0)  -->
<svg version="1.1" id="Layer_1" xmlns="http://www.w3.org/2000/svg" xmlns:xlink="http://www.w3.org/1999/xlink" x="0px" y="0px"
	 viewBox="0 0 124 126" style="enable-background:new 0 0 124 126;" xml:space="preserve">
<g>
	<g>
		<path d="M67.8,68.6c0,1-0.2,1.8-0.6,2.5c-0.8,1.4-2.2,2.2-4.3,2.3v-9.6c1.5,0.4,2.6,0.9,3.2,1.3C67.3,65.9,67.8,67.1,67.8,68.6
			L67.8,68.6z M88.6,53.7l-2,3.2l3.2,2l-2.6,2.8l2.8,2.5l-3,2.3l2.3,3l-3.4,1.6l1.7,3.4l-3.7,1l1,3.7l-3.8,0.3l0.3,3.8l-3.8-0.5
			l-0.4,3.8l-3.6-1.2l-1.1,3.6l-3.3-1.8l-1.8,3.3l-2.9-2.4L62,91.1l-2.4-2.9l-2.9,2.4l-1.8-3.3l-3.3,1.8l-1.1-3.6l-3.6,1.2l-0.4-3.8
			l-3.8,0.5l0.3-3.8l-3.8-0.3l1-3.7l-3.7-1l1.7-3.4l-3.4-1.6l2.3-3l-3-2.3l2.8-2.5l-2.6-2.8l3.2-2l-2-3.2l3.6-1.3l-1.3-3.6l3.7-0.6
			l-0.6-3.7l3.8,0.1l0.1-3.8l3.7,0.8l0.8-3.7l3.5,1.5l1.5-3.5l3.1,2.1l2.1-3.2l2.7,2.7l2.7-2.7l2.1,3.2l3.1-2.1l1.5,3.5l3.5-1.5
			l0.8,3.7l3.7-0.8l0.1,3.8l3.8-0.1l-0.6,3.7l3.7,0.6l-1.3,3.6L88.6,53.7z M71.1,67.7c0-2.2-0.8-3.9-2.5-5.1c-1-0.7-2.9-1.4-5.7-2.2
			v-8.9c1.7,0.1,2.9,0.7,3.7,1.9c0.4,0.7,0.7,1.5,0.8,2.4h3.2c-0.1-2.1-0.8-3.7-2-5c-1.3-1.3-3.2-2-5.6-2.1v-2.4h-1.7v2.4
			c-2.4,0-4.3,0.8-5.7,2.3c-1.4,1.5-2,3.1-2,5c0,2.1,0.6,3.7,1.9,4.9c1.3,1.2,3.2,2,5.8,2.5v9.9c-2.1-0.2-3.5-0.9-4.2-2.3
			c-0.4-0.8-0.7-2-0.8-3.6h-3.2c0,2.1,0.3,3.8,1,5c1.3,2.3,3.7,3.5,7.2,3.8v3.5h1.7v-3.5c2.2-0.2,3.9-0.7,5.1-1.5
			C70,73.3,71.1,71,71.1,67.7L71.1,67.7z M57.7,53c-0.7,0.9-1,1.9-1,2.9c0,1.2,0.4,2.2,1.2,2.8c0.8,0.7,1.9,1.2,3.3,1.4v-8.6
			C59.5,51.6,58.4,52,57.7,53L57.7,53z"/>
	</g>
</g>
</svg>
