<?xml version="1.0" encoding="utf-8"?>
<!-- Generator: Adobe Illustrator 20.1.0, SVG Export Plug-In . SVG Version: 6.00 Build 0)  -->
<svg version="1.1" id="Layer_1" xmlns="http://www.w3.org/2000/svg" xmlns:xlink="http://www.w3.org/1999/xlink" x="0px" y="0px"
	 viewBox="0 0 124 126" style="enable-background:new 0 0 124 126;" xml:space="preserve">
<g>
	<g>
		<path d="M76.3,48.1l13.6,3.6L93.3,38l-2.6-0.7l-2.2,8.5C82.8,36.6,72.6,30.5,61,30.5c-17.9,0-32.3,14.5-32.3,32.3
			S43.1,95.2,61,95.2c11.9,0,22.3-6.4,27.9-16l-2.3-1.3C81.4,86.6,71.9,92.5,61,92.5c-16.4,0-29.7-13.3-29.7-29.7S44.6,33.2,61,33.2
			c11,0,20.6,6,25.7,14.9L77,45.4L76.3,48.1z"/>
		<path d="M62.4,77.2v-2.5c2.3-0.1,4.1-0.8,5.5-2.1c1.4-1.2,2.1-2.9,2.1-4.8c0-2.1-0.6-3.6-1.8-4.5c-1.2-1.1-3-1.9-5.6-2.5h-0.1
			v-6.3c1.8,0.3,3.3,0.8,4.8,1.9l2.2-3c-2.2-1.5-4.5-2.3-7-2.5v-1.6h-2.1V51c-2.1,0.1-3.9,0.8-5.2,2.1s-2.1,2.9-2.1,4.8
			c0,1.9,0.6,3.4,1.8,4.4c1.1,1,3,1.8,5.5,2.3V71c-1.9-0.3-3.9-1.2-5.8-2.9L52.1,71c2.5,2.2,5.2,3.4,8.2,3.7v2.5L62.4,77.2
			L62.4,77.2z M62.6,65.2c1.4,0.4,2.2,0.8,2.7,1.2c0.4,0.6,0.7,1.1,0.7,1.9s-0.3,1.4-1,1.9s-1.5,0.8-2.5,1
			C62.6,71.3,62.6,65.2,62.6,65.2z M57.8,59.3c-0.4-0.4-0.7-1.1-0.7-1.8c0-0.8,0.3-1.4,0.8-1.9c0.7-0.6,1.4-0.8,2.5-1v5.9
			C59,60.1,58.2,59.7,57.8,59.3L57.8,59.3z"/>
	</g>
</g>
</svg>
